Coordinates
version=1
nRows=30
nColumns=38
inDegrees=no

Units are S.I. units (second, meters, Newtons, ...)
If the header above contains a line with 'inDegrees', this indicates whether rotational values are in degrees (yes) or radians (no).

endheader
time	pelvis_tilt	pelvis_list	pelvis_rotation	pelvis_tx	pelvis_ty	pelvis_tz	hip_flexion_r	hip_adduction_r	hip_rotation_r	knee_angle_r	ankle_angle_r	subtalar_angle_r	mtp_angle_r	hip_flexion_l	hip_adduction_l	hip_rotation_l	knee_angle_l	ankle_angle_l	subtalar_angle_l	mtp_angle_l	lumbar_extension	lumbar_bending	lumbar_rotation	arm_flex_r	arm_add_r	arm_rot_r	elbow_flex_r	pro_sup_r	wrist_flex_r	wrist_dev_r	arm_flex_l	arm_add_l	arm_rot_l	elbow_flex_l	pro_sup_l	wrist_flex_l	wrist_dev_l
1.55	0.638479	1.32138	-1.99371	0.588187	0.373794	0.901799	-0.307651	-0.251744	-0.513852	0.855623	-0.148191	0	0	0.105964	0.223864	0.0363703	0.301381	-0.249267	0	0	-0.20172	-0.0268233	0.177283	-0.32899	-0.543025	-0.268409	1.61942	0.789907	0	0	0.47801	-0.308345	0.474921	0.90157	0.926586	0	0
1.56	0.650979	1.31903	-2.00573	0.590122	0.364074	0.902633	-0.290378	-0.268827	-0.497814	0.901881	-0.178443	0	0	0.107226	0.229323	0.0515931	0.331804	-0.249289	0	0	-0.204649	-0.0327629	0.175628	-0.328264	-0.542627	-0.26675	1.61702	0.788578	0	0	0.485788	-0.317678	0.498602	0.902807	0.918737	0	0
1.57	0.665838	1.31662	-2.02083	0.591978	0.354517	0.903517	-0.268735	-0.288298	-0.481869	0.951283	-0.221381	0	0	0.105551	0.236167	0.0661975	0.355706	-0.245058	0	0	-0.207078	-0.0387409	0.176196	-0.329254	-0.5422	-0.267088	1.61572	0.786721	0	0	0.485715	-0.310538	0.486334	0.898946	0.929152	0	0
1.58	0.692439	1.31848	-2.0471	0.593946	0.34488	0.903787	-0.236746	-0.314112	-0.473867	1.00802	-0.330098	0	0	0.109112	0.245473	0.0856848	0.38343	-0.224367	0	0	-0.202858	-0.0454448	0.175809	-0.330659	-0.544203	-0.264337	1.61408	0.777763	0	0	0.484329	-0.305442	0.475744	0.896381	0.940996	0	0
1.59	0.714843	1.31519	-2.07191	0.595418	0.335103	0.904262	-0.207157	-0.348227	-0.475337	1.07145	-0.374897	0	0	0.103613	0.253941	0.0881964	0.397371	-0.217646	0	0	-0.204209	-0.0545787	0.176709	-0.330833	-0.545245	-0.261812	1.61412	0.77282	0	0	0.489373	-0.314584	0.493599	0.900848	0.932856	0	0
1.6	0.732526	1.31208	-2.09244	0.596963	0.325301	0.904819	-0.176853	-0.379474	-0.473927	1.12864	-0.460151	0	0	0.0962539	0.261033	0.0862532	0.406943	-0.211678	0	0	-0.205076	-0.0617154	0.178719	-0.332775	-0.547989	-0.259589	1.61545	0.764787	0	0	0.489669	-0.314655	0.493731	0.902531	0.922739	0	0
1.61	0.743295	1.30729	-2.1064	0.598459	0.315288	0.905345	-0.152544	-0.415677	-0.484556	1.18457	-0.495966	0	0	0.0845713	0.267015	0.0812812	0.412061	-0.206172	0	0	-0.207868	-0.0680488	0.179244	-0.333577	-0.550175	-0.257092	1.61795	0.759973	0	0	0.492264	-0.324223	0.508691	0.908905	0.914343	0	0
1.62	0.738031	1.30364	-2.10667	0.59974	0.305499	0.906245	-0.124558	-0.432272	-0.469695	1.22956	-0.52829	0	0	0.0711607	0.268385	0.0751862	0.415148	-0.196034	0	0	-0.211817	-0.0691327	0.182405	-0.33444	-0.553499	-0.255434	1.62083	0.754464	0	0	0.48975	-0.322825	0.502574	0.910779	0.907595	0	0
1.63	0.72177	1.29962	-2.09575	0.600944	0.295813	0.907423	-0.0989499	-0.442477	-0.454187	1.26934	-0.54301	0	0	0.0542297	0.267431	0.0729307	0.416126	-0.187837	0	0	-0.217662	-0.0673904	0.184204	-0.333472	-0.555821	-0.25372	1.6233	0.752285	0	0	0.490529	-0.327829	0.510587	0.913569	0.897606	0	0
1.64	0.698265	1.29527	-2.07656	0.602248	0.286263	0.908967	-0.075557	-0.448932	-0.440429	1.30533	-0.550283	0	0	0.0348305	0.26502	0.0739687	0.416278	-0.181706	0	0	-0.225068	-0.0634442	0.183354	-0.330035	-0.556963	-0.251414	1.6246	0.753197	0	0	0.493633	-0.338921	0.529593	0.91757	0.890396	0	0
1.65	0.673309	1.29059	-2.05547	0.603452	0.276694	0.91087	-0.0538556	-0.453299	-0.427139	1.3375	-0.54581	0	0	0.0139606	0.261772	0.0754236	0.415673	-0.176534	0	0	-0.231773	-0.0581294	0.185595	-0.330843	-0.55723	-0.252674	1.62646	0.752229	0	0	0.483672	-0.320155	0.490428	0.909316	0.900638	0	0
1.66	0.640708	1.28184	-2.0291	0.60429	0.267206	0.913344	-0.0372243	-0.455489	-0.411369	1.36709	-0.489691	0	0	-0.0142988	0.255851	0.0655895	0.407132	-0.168716	0	0	-0.244632	-0.0538038	0.185979	-0.326323	-0.560954	-0.24736	1.62686	0.746938	0	0	0.487023	-0.330994	0.509185	0.911946	0.894314	0	0
1.67	0.61496	1.27631	-2.00578	0.605432	0.257778	0.915691	-0.0194299	-0.456612	-0.400405	1.39056	-0.475086	0	0	-0.0386233	0.250644	0.0667555	0.401642	-0.165402	0	0	-0.252805	-0.0488979	0.183936	-0.322494	-0.561421	-0.244024	1.62528	0.747187	0	0	0.489297	-0.338164	0.523435	0.911317	0.890639	0	0
1.68	0.591163	1.27197	-1.98373	0.606619	0.248315	0.918021	-0.00144822	-0.456357	-0.390812	1.41003	-0.442681	0	0	-0.0623711	0.244663	0.0674664	0.394078	-0.15818	0	0	-0.258709	-0.0428156	0.183399	-0.321612	-0.56234	-0.242289	1.62413	0.746689	0	0	0.471484	-0.309899	0.45378	0.9008	0.945456	0	0
1.69	0.564282	1.2631	-1.95884	0.607574	0.238932	0.920596	0.0103061	-0.456027	-0.383006	1.42394	-0.417302	0	0	-0.0930096	0.237593	0.059566	0.377672	-0.165603	0	0	-0.270419	-0.0388993	0.181669	-0.318517	-0.562903	-0.239535	1.62251	0.748689	0	0	0.486141	-0.336459	0.518551	0.906781	0.891484	0	0
1.7	0.545553	1.26039	-1.93874	0.608928	0.229572	0.922613	0.0284273	-0.455178	-0.378112	1.43418	-0.417454	0	0	-0.114224	0.231534	0.0632802	0.371016	-0.16118	0	0	-0.27426	-0.0335121	0.177796	-0.316799	-0.562352	-0.237361	1.61982	0.749841	0	0	0.48529	-0.339214	0.523028	0.906395	0.890512	0	0
1.71	0.529014	1.25761	-1.92027	0.610296	0.220243	0.924536	0.0458235	-0.454156	-0.374237	1.44001	-0.410633	0	0	-0.135591	0.225358	0.0637758	0.362318	-0.159946	0	0	-0.277483	-0.0281501	0.175367	-0.317854	-0.561696	-0.237584	1.61826	0.749816	0	0	0.478682	-0.328479	0.500763	0.901528	0.896144	0	0
1.72	0.508542	1.25119	-1.89926	0.611477	0.21099	0.926631	0.0580279	-0.451451	-0.369908	1.44059	-0.38085	0	0	-0.163161	0.217398	0.0515722	0.343727	-0.166833	0	0	-0.285911	-0.0235647	0.171064	-0.315073	-0.563411	-0.233517	1.61664	0.749634	0	0	0.478459	-0.336399	0.510633	0.907022	0.891943	0	0
1.73	0.496356	1.24935	-1.88327	0.612919	0.201823	0.92812	0.0743819	-0.449454	-0.368783	1.43786	-0.378829	0	0	-0.182593	0.211128	0.0499416	0.335507	-0.163387	0	0	-0.288396	-0.0192597	0.165283	-0.314327	-0.563058	-0.231673	1.61479	0.75064	0	0	0.478587	-0.341573	0.518637	0.909611	0.889883	0	0
1.74	0.482297	1.245	-1.86627	0.614178	0.192662	0.929719	0.0864461	-0.446376	-0.368297	1.43124	-0.342068	0	0	-0.206905	0.203585	0.0381647	0.317538	-0.172461	0	0	-0.293456	-0.0145429	0.162721	-0.316754	-0.563082	-0.232741	1.61517	0.752412	0	0	0.471671	-0.328725	0.491274	0.906346	0.896467	0	0
1.75	0.471923	1.24319	-1.85112	0.615593	0.18369	0.930865	0.101039	-0.443731	-0.370113	1.42192	-0.328638	0	0	-0.226111	0.196909	0.0336865	0.307406	-0.17284	0	0	-0.296734	-0.0106554	0.155504	-0.315609	-0.562823	-0.230981	1.61471	0.75286	0	0	0.477252	-0.343854	0.519671	0.913252	0.888073	0	0
1.76	0.463423	1.24244	-1.83726	0.61698	0.174795	0.931774	0.116205	-0.441185	-0.37377	1.40934	-0.323759	0	0	-0.243149	0.190376	0.030053	0.298949	-0.169992	0	0	-0.298439	-0.00639813	0.149967	-0.317278	-0.561544	-0.232717	1.61557	0.752743	0	0	0.477507	-0.344169	0.520299	0.913985	0.887858	0	0
1.77	0.453932	1.23991	-1.82339	0.618196	0.165971	0.93268	0.128584	-0.438116	-0.377999	1.39307	-0.291625	0	0	-0.262714	0.183451	0.020398	0.285714	-0.173707	0	0	-0.301935	-0.00184646	0.14738	-0.321194	-0.561156	-0.236674	1.61809	0.750229	0	0	0.47257	-0.329884	0.492901	0.90937	0.897175	0	0
1.78	0.448541	1.23927	-1.81277	0.619446	0.157285	0.933179	0.143061	-0.43626	-0.383368	1.37406	-0.284131	0	0	-0.277827	0.177995	0.0172772	0.279697	-0.171273	0	0	-0.304058	0.00106167	0.140623	-0.319994	-0.561506	-0.235785	1.61821	0.749499	0	0	0.479408	-0.343051	0.519121	0.914971	0.890058	0	0
1.79	0.442496	1.23758	-1.80241	0.620582	0.148618	0.933639	0.155187	-0.434069	-0.389011	1.35107	-0.269084	0	0	-0.294859	0.172483	0.0117981	0.270354	-0.173546	0	0	-0.307038	0.00427564	0.136313	-0.320476	-0.563506	-0.235709	1.61936	0.746042	0	0	0.482237	-0.344884	0.524351	0.91626	0.887072	0	0
1.8	0.43794	1.23675	-1.79396	0.621687	0.139961	0.933911	0.167264	-0.432146	-0.394961	1.32439	-0.258602	0	0	-0.310811	0.167504	0.00787632	0.261618	-0.172229	0	0	-0.308753	0.00739002	0.132749	-0.320825	-0.565154	-0.236134	1.62015	0.744426	0	0	0.482376	-0.341329	0.518132	0.915363	0.889541	0	0
1.81	0.43648	1.23672	-1.78924	0.622695	0.131301	0.933949	0.179605	-0.43129	-0.401086	1.29475	-0.253188	0	0	-0.325466	0.163645	0.00507957	0.253755	-0.16992	0	0	-0.309366	0.00933347	0.129597	-0.32032	-0.566435	-0.236135	1.62023	0.743671	0	0	0.483994	-0.340158	0.517915	0.915086	0.887688	0	0
1.82	0.437394	1.23736	-1.78787	0.623564	0.122625	0.933771	0.191978	-0.431235	-0.407159	1.2624	-0.250376	0	0	-0.338695	0.160979	0.0031805	0.247422	-0.16774	0	0	-0.309419	0.0100747	0.126313	-0.318136	-0.567323	-0.235225	1.61963	0.743533	0	0	0.487688	-0.344946	0.527696	0.917435	0.886068	0	0
1.83	0.437965	1.23728	-1.7879	0.624243	0.113874	0.93358	0.202013	-0.430781	-0.413144	1.22602	-0.244968	0	0	-0.353745	0.158655	-0.00179738	0.237231	-0.16756	0	0	-0.309551	0.0112301	0.127802	-0.319867	-0.5675	-0.238862	1.62069	0.744488	0	0	0.483454	-0.328384	0.498422	0.9107	0.894945	0	0
1.84	0.441395	1.23824	-1.79148	0.624839	0.105133	0.933103	0.212845	-0.431102	-0.41957	1.18838	-0.243469	0	0	-0.366536	0.157333	-0.00547218	0.230295	-0.163737	0	0	-0.309597	0.0103634	0.125646	-0.315794	-0.568764	-0.236765	1.61966	0.744599	0	0	0.491886	-0.343862	0.52949	0.917182	0.887679	0	0
